mtllib model.mtl
o object_0
g object_0
usemtl object_0
v 6.220407009124756 0 -2.5594699382781982 
v -1.6295900344848633 0 -2.5594699382781982 
v 6.220407009124756 0 1.6305266618728638 
v -1.6295900344848633 0 1.6305266618728638 
vn 0.000000 0.999998 0.002185
vn 0.000000 0.999998 0.002185
vn 0.000000 0.999998 0.002185
vn 0.000000 0.999998 0.002185
vt 0.000000 1.000001
vt 0.000000 0.000000
vt 0.505940 1.000001
vt 0.505940 0.000000
f 1/1/1 2/2/2 3/3/3
f 2/2/2 4/4/4 3/3/3
o object_1
g object_1
usemtl object_1
v 0 0 5.399999736255268e-7 
v 0 1.0458005666732788 5.399999736255268e-7 
v 0 0 -1 
v 0 1.0458005666732788 -1 
v 4.500003814697266 0 5.399999736255268e-7 
v 4.393704414367676 0 5.399999736255268e-7 
v 4.500003814697266 0 -1 
v 4.393704414367676 0 -1 
v 4.500003814697266 0 -1 
v 4.500003814697266 1.0458005666732788 -1 
v 4.500003814697266 0 5.399999736255268e-7 
v 4.500003814697266 1.0458005666732788 5.399999736255268e-7 
v 4.393704414367676 0 -1 
v 4.393704414367676 0 5.399999736255268e-7 
v 4.393704414367676 0.9387500882148743 -1 
v 4.393704414367676 0.9387500882148743 5.399999736255268e-7 
v 0.10629930347204208 0 -1 
v 0 0 -1 
v 0.10629930347204208 0.9387500882148743 -1 
v 0 1.0458005666732788 -1 
v 4.393704414367676 0.9387500882148743 -1 
v 4.500003814697266 1.0458005666732788 -1 
v 4.500003814697266 0 -1 
v 0.10629930347204208 0 5.399999736255268e-7 
v 0 0 5.399999736255268e-7 
v 0.10629930347204208 0 -1 
v 0 0 -1 
v 0.10629930347204208 0.9387500882148743 -1 
v 4.393704414367676 0.9387500882148743 -1 
v 0.10629930347204208 0.9387500882148743 5.399999736255268e-7 
v 4.393704414367676 0.9387500882148743 5.399999736255268e-7 
v 0.10629930347204208 0 5.399999736255268e-7 
v 0.10629930347204208 0.9387500882148743 5.399999736255268e-7 
v 0 0 5.399999736255268e-7 
v 0 1.0458005666732788 5.399999736255268e-7 
v 4.393704414367676 0.9387500882148743 5.399999736255268e-7 
v 4.500003814697266 1.0458005666732788 5.399999736255268e-7 
v 4.500003814697266 0 5.399999736255268e-7 
v 4.393704414367676 0 5.399999736255268e-7 
v 4.500003814697266 1.0458005666732788 5.399999736255268e-7 
v 4.500003814697266 1.0458005666732788 -1 
v 0 1.0458005666732788 5.399999736255268e-7 
v 0 1.0458005666732788 -1 
v 0.10629930347204208 0.9387500882148743 -1 
v 0.10629930347204208 0.9387500882148743 5.399999736255268e-7 
v 0.10629930347204208 0 -1 
v 0.10629930347204208 0 5.399999736255268e-7 
v 4.393704414367676 0 -1 
vn -0.999998 0.000000 0.002185
vn -0.999998 0.000000 0.002185
vn -0.999998 0.000000 0.002185
vn -0.999998 0.000000 0.002185
vn 0.000000 -0.999998 0.002185
vn 0.000000 -0.999998 0.002185
vn 0.000000 -0.999998 0.002185
vn 0.000000 -0.999998 0.002185
vn 0.999998 0.000000 0.002185
vn 0.999998 0.000000 0.002185
vn 0.999998 0.000000 0.002185
vn 0.999998 0.000000 0.002185
vn -0.999998 0.000000 0.002185
vn -0.999998 0.000000 0.002185
vn -0.999998 0.000000 0.002185
vn -0.999998 0.000000 0.002185
vn 0.000000 0.000000 -1.000000
vn 0.000000 0.000000 -1.000000
vn 0.000000 0.000000 -1.000000
vn 0.000000 0.000000 -1.000000
vn 0.000000 0.000000 -1.000000
vn 0.000000 0.000000 -1.000000
vn 0.000000 0.000000 -1.000000
vn 0.000000 -0.999998 0.002185
vn 0.000000 -0.999998 0.002185
vn 0.000000 -0.999998 0.002185
vn 0.000000 -0.999998 0.002185
vn 0.000000 -0.999998 0.002185
vn 0.000000 -0.999998 0.002185
vn 0.000000 -0.999998 0.002185
vn 0.000000 -0.999998 0.002185
vn 0.000000 0.000000 1.000000
vn 0.000000 0.000000 1.000000
vn 0.000000 0.000000 1.000000
vn 0.000000 0.000000 1.000000
vn 0.000000 0.000000 1.000000
vn 0.000000 0.000000 1.000000
vn 0.000000 0.000000 1.000000
vn 0.000000 0.000000 1.000000
vn 0.000000 0.999998 0.002185
vn 0.000000 0.999998 0.002185
vn 0.000000 0.999998 0.002185
vn 0.000000 0.999998 0.002185
vn 0.999998 0.000000 0.002185
vn 0.999998 0.000000 0.002185
vn 0.999998 0.000000 0.002185
vn 0.999998 0.000000 0.002185
vn 0.000000 0.000000 -1.000000
vt 0.000027 -0.500679
vt 0.000027 0.057082
vt -0.199985 -0.500679
vt -0.199985 0.057082
vt -0.900000 -0.000004
vt -0.878027 -0.000004
vt -0.900000 0.533333
vt -0.878027 0.533333
vt 0.199984 -0.500679
vt 0.199984 0.057082
vt 0.000027 -0.500679
vt 0.000027 0.057082
vt -0.199985 -0.500679
vt 0.000027 -0.500679
vt -0.199985 -0.000004
vt 0.000027 -0.000004
vt -0.022001 -0.500679
vt 0.000027 -0.500679
vt -0.022001 -0.000004
vt 0.000027 0.057082
vt -0.878027 -0.000004
vt -0.900000 0.057082
vt -0.900000 -0.500679
vt -0.022001 -0.000004
vt 0.000027 -0.000004
vt -0.022001 0.533333
vt 0.000027 0.533333
vt -0.022001 0.533333
vt -0.878027 0.533333
vt -0.022001 -0.000004
vt -0.878027 -0.000004
vt 0.022001 -0.500679
vt 0.022001 -0.000004
vt 0.000027 -0.500679
vt 0.000027 0.057082
vt 0.878026 -0.000004
vt 0.899999 0.057082
vt 0.899999 -0.500679
vt 0.878026 -0.500679
vt 0.899999 -0.000004
vt 0.899999 0.533333
vt 0.000027 -0.000004
vt 0.000027 0.533333
vt 0.199984 -0.000004
vt 0.000027 -0.000004
vt 0.199984 -0.500679
vt 0.000027 -0.500679
vt -0.878027 -0.500679
f 5/5/5 6/6/6 7/7/7
f 6/6/6 8/8/8 7/7/7
f 9/9/9 10/10/10 11/11/11
f 10/10/10 12/12/12 11/11/11
f 13/13/13 14/14/14 15/15/15
f 14/14/14 16/16/16 15/15/15
f 17/17/17 18/18/18 19/19/19
f 18/18/18 20/20/20 19/19/19
f 21/21/21 22/22/22 23/23/23
f 22/22/22 24/24/24 23/23/23
f 23/23/23 24/24/24 25/25/25
f 24/24/24 26/26/26 25/25/25
f 25/25/25 26/26/26 27/27/27
f 28/28/28 29/29/29 30/30/30
f 29/29/29 31/31/31 30/30/30
f 32/32/32 33/33/33 34/34/34
f 33/33/33 35/35/35 34/34/34
f 36/36/36 37/37/37 38/38/38
f 37/37/37 39/39/39 38/38/38
f 37/37/37 40/40/40 39/39/39
f 40/40/40 41/41/41 39/39/39
f 41/41/41 40/40/40 42/42/42
f 40/40/40 43/43/43 42/42/42
f 44/44/44 45/45/45 46/46/46
f 45/45/45 47/47/47 46/46/46
f 48/48/48 49/49/49 50/50/50
f 49/49/49 51/51/51 50/50/50
f 27/27/27 52/52/52 25/25/25
